<svg xmlns="http://www.w3.org/2000/svg" xmlns:xlink="http://www.w3.org/1999/xlink" preserveAspectRatio="xMidYMid meet" version="1.1" viewBox="152.714 138.643 28 25.786"><defs><path id="nhvt97e2Oq" d="M180.71 146.86C180.71 151.39 177.03 155.07 172.5 155.07C167.97 155.07 164.29 151.39 164.29 146.86C164.29 142.32 167.97 138.64 172.5 138.64C177.03 138.64 180.71 142.32 180.71 146.86Z"/><path id="xlFOxXBvv2" d="M164.14 154.57C164.14 157.73 161.58 160.29 158.43 160.29C155.27 160.29 152.71 157.73 152.71 154.57C152.71 151.42 155.27 148.86 158.43 148.86C161.58 148.86 164.14 151.42 164.14 154.57Z"/><path id="XD0bxpXv0Z" d="M175 160.86C175 162.83 173.4 164.43 171.43 164.43C169.46 164.43 167.86 162.83 167.86 160.86C167.86 158.89 169.46 157.29 171.43 157.29C173.4 157.29 175 158.89 175 160.86Z"/></defs><g visibility="inherit"><g visibility="inherit"><use fill="#ff6b69" fill-opacity="1" opacity="1" xlink:href="#nhvt97e2Oq"/></g><g visibility="inherit"><use fill="#fca72c" fill-opacity="1" opacity="1" xlink:href="#xlFOxXBvv2"/></g><g visibility="inherit"><use fill="#38bfb1" fill-opacity="1" opacity="1" xlink:href="#XD0bxpXv0Z"/></g></g></svg>